<svg xmlns="http://www.w3.org/2000/svg" width="40" height="33" viewBox="0 0 40 33">
  <defs>
    <style>
      .cls-1, .cls-2 {
        fill: #e73c3c;
      }

      .cls-2, .cls-4 {
        fill-rule: evenodd;
      }

      .cls-3 {
        fill: #fff;
      }

      .cls-4 {
        fill: #3c3c3c;
      }
    </style>
  </defs>
  <path class="cls-1" d="M3,13H37a3,3,0,0,1,3,3V32a1,1,0,0,1-1,1H1a1,1,0,0,1-1-1V16A3,3,0,0,1,3,13Z"/>
  <path class="cls-2" d="M20,2L0,15H40L20,2"/>
  <circle class="cls-3" cx="20" cy="9" r="3"/>
  <path class="cls-4" d="M20.416,10.277l-0.832-.555,8-12,0.832,0.555Z"/>
  <path class="cls-4" d="M19.432,9.748l-0.864.5-7-12,0.864-.5Z"/>
</svg>
