<svg xmlns="http://www.w3.org/2000/svg" width="50" height="50" viewBox="0 0 50 50">
  <defs>
    <style>
      .cls-1 {
        fill: red;
        fill-rule: evenodd;
      }
    </style>
  </defs>
  <path class="cls-1" d="M46.357,27.1L50,25l-3.643-2.1,3.163-2.773L45.537,18.77,48.1,15.433l-4.171-.549,1.861-3.772-4.2.274,1.089-4.062L38.614,8.411l0.276-4.2-3.774,1.86L34.568,1.9,31.23,4.464,29.878,0.48,27.1,3.643,25,0,22.9,3.643,20.123,0.48,18.771,4.464,15.433,1.9,14.884,6.074,11.111,4.213l0.275,4.2L7.322,7.322l1.089,4.064-4.2-.275,1.861,3.773L1.9,15.432,4.464,18.77,0.48,20.122,3.643,22.9,0,25l3.643,2.1L0.48,29.878,4.464,31.23,1.9,34.567l4.171,0.55L4.212,38.89l4.2-.275L7.322,42.678l4.064-1.089-0.275,4.2,3.773-1.861L15.432,48.1l3.338-2.561,1.352,3.983L22.9,46.358,25,50l2.1-3.643,2.773,3.163,1.353-3.984L34.567,48.1l0.55-4.171,3.773,1.861-0.275-4.2,4.063,1.09L41.59,38.614l4.2,0.276-1.86-3.774,4.17-.548-2.56-3.338,3.983-1.352Z"/>
</svg>
